<svg id="Capa_1" data-name="Capa 1" xmlns="http://www.w3.org/2000/svg" viewBox="0 0 748.4 173.27"><defs><style>.cls-1{fill:#b36c39;}</style></defs><title>logo</title><path class="cls-1" d="M133.4,60.3c-2.1,1.8-10.4,8.2-18.4,14.1S100.2,85.7,99.8,86.3c-.5.9,9,1.1,38.5.9,21.5-.1,39.2-.4,39.4-.6.5-.5-38.2-29.6-39.4-29.6C137.8,57,135.6,58.5,133.4,60.3Z" transform="translate(-57.6 -57)"/><path class="cls-1" d="M80.7,70.3c-1.7,1.1-5.6,3.9-8.6,6.4s-6.8,5.4-8.3,6.6A9.49,9.49,0,0,0,61,86.1c0,1,19.1,1.8,21.4.9,1.1-.4,4.9-3,8.2-5.6s8.3-6.4,10.9-8.2,4.5-3.5,4.2-3.8-5.3-.6-11.2-.8C85.5,68.5,83.3,68.7,80.7,70.3Z" transform="translate(-57.6 -57)"/><path class="cls-1" d="M172.8,69.1c-.5.3,3,3.6,7.9,7.2s9.8,7.5,11.1,8.6c2.5,2.1,9.1,3,20.9,2.9,7.1-.1,7.2-.9,1-5.2-2.3-1.6-7.4-5.4-11.3-8.3l-7.2-5.4-10.7-.2C178.6,68.6,173.4,68.8,172.8,69.1Z" transform="translate(-57.6 -57)"/><path class="cls-1" d="M57.9,97.7c-.6,6.3-.2,131.6.4,132s153.7.8,160.5.4c1-.1,1.2-13.7,1-66.3l-.3-66.3-80.7-.3C94.3,97.1,58,97.3,57.9,97.7ZM89,127.4c.3,9.8.2,18.2-.1,18.7s-3.9.9-8,.7l-7.4-.3L73.2,129c-.1-9.6,0-18,.3-18.8s2.4-1.2,7.7-1l7.3.3Zm28.5-16.2c.3,1.3.4,9.7.3,18.8l-.3,16.5-7.4.3c-4.1.2-7.7-.1-8-.7s-.5-9-.3-19l.3-18.1h7.4C116.4,109,117,109.2,117.5,111.2Zm29.3,16.5-.3,18.8-6.8.3c-4.2.2-7.4-.2-8.3-.9-1.5-1.3-2-19.1-.8-30.8l.7-6.1H147Zm28.7-16.5c.3,1.3.4,9.7.3,18.8l-.3,16.5h-16l-.3-17.5c-.1-9.6,0-18,.2-18.7.4-.9,2.9-1.3,8-1.3C174.4,109,175,109.2,175.5,111.2Zm29.3,16.2c.2,13.7-.1,18.1-1,18.8-1.9,1.2-13.6,1-14.4-.3-.9-1.5-.9-34.3,0-35.8.5-.8,3.2-1.1,7.9-.9l7.2.3Zm-62.6,25.5c1.3.5,3.9,1.3,5.8,1.9,16,4.8,21,6.5,20.5,7.1-.8.8-56.3,1.2-58.9.4-1.3-.4,2.1-1.9,10-4.4,6.5-2.1,13-4.3,14.4-4.8C137.4,151.9,139.5,151.8,142.2,152.9ZM113.5,188v20.5h-6l-.3-19.4c-.3-20.4.1-22.5,4.2-21.9C113.5,167.5,113.5,168,113.5,188Zm44.2-19.6c1.3,2,1.2,39-.1,39.8-.6.4-9.1.8-18.9.8-16,0-17.8-.2-18.5-1.8-.4-.9-.7-10-.7-20.2V168.5l4-.6C130.7,166.8,157,167.2,157.7,168.4Zm-68.5.6c.2.5.1,9.6-.2,20.2l-.5,19.3h-15l-.3-20.3L73,168h7.9C85.3,168,89,168.4,89.2,169Zm81.1,3.2c.7,5.2.1,34.4-.8,35.8s-4.2,1.3-5-.1c-1-1.5-1.9-34.1-1.1-37.3.5-2,1.3-2.6,3.5-2.6C169.5,168,169.8,168.4,170.3,172.2ZM205,188v20l-2.3.5a29.89,29.89,0,0,1-7.8.3l-5.4-.3-.3-20.3L189,168h16Zm-35.2,29.7.3,3.2-21.8.3c-12,.2-26.1.1-31.3-.2-8.1-.4-9.5-.8-9.8-2.3-.9-4.8-1.3-4.7,31.5-4.5l30.8.3Z" transform="translate(-57.6 -57)"/><path class="cls-1" d="M470.5,107.2c-.3.7-.4,20-.3,42.8l.3,41.5h9L480,178l.5-13.5,6.6,7c3.7,3.8,8.8,9.6,11.3,12.7,5.8,7.1,7,7.8,14,7.8,6.7,0,7.2-1.2,2.2-6.1-1.9-1.9-7.5-7.9-12.5-13.3l-9.2-10L504.5,151c6.4-6.4,11.3-11.9,10.9-12.3s-3.2-.7-6.3-.7h-5.5l-11,11c-6,6-11.3,11-11.7,11s-1-12-1.1-26.8l-.3-26.7-4.3-.3C472.4,106,470.8,106.3,470.5,107.2Z" transform="translate(-57.6 -57)"/><path class="cls-1" d="M268.8,112c-1.5.9-1.7,4.6-1.8,38.9,0,20.8.2,38.6.6,39.5.8,2.1,8.6,2.2,10.4.2.9-1.1,1-8.9.6-31.5-.5-25-.4-30.1.8-30.1.7,0,2.3,2.7,3.6,6.2a39.64,39.64,0,0,0,3.1,7.3,4.86,4.86,0,0,1,.9,3,5.67,5.67,0,0,0,.8,3c.5.6,2.8,5.9,5.2,12s4.6,11.4,5,12a93.62,93.62,0,0,1,4,9.5c1.9,4.7,3.8,8.8,4.4,9.2a9.13,9.13,0,0,0,3.9.8c2.5,0,3.1-.7,5.3-5.8,1.3-3.1,2.9-6.5,3.4-7.4a7.35,7.35,0,0,0,1-3.3,14.23,14.23,0,0,1,1.8-4.7c1-1.8,5.1-11.7,9.2-22s8.1-19,8.8-19.3c1.1-.4,1.3,5,1.2,29.8-.1,16.6-.1,30.8-.1,31.5.1.9,1.6,1.2,5.4,1l5.2-.3.3-38.9c.1-27.9-.1-39.3-.9-40.2-1.5-1.8-14.2-1.9-15.7-.2-.9,1.2-4.7,10.2-13.2,31.3-1.8,4.4-3.5,8.9-3.9,10s-1.7,4-2.8,6.5-2.6,6-3.3,7.8-1.7,3.1-2.2,3-2.1-3.1-3.4-6.3-2.8-6.9-3.4-8-3-7-5.5-13-5.4-12.6-6.4-14.5a70.14,70.14,0,0,1-3.6-9.3c-1-3.2-2.7-6.5-3.9-7.3C281.3,110.8,271.4,110.5,268.8,112Z" transform="translate(-57.6 -57)"/><path class="cls-1" d="M533.1,112.4c-.8.9-1,12.3-.9,40.2l.3,38.9h10l.3-18.3L543,155h20.1c16,0,20.1.3,20.5,1.4.3.7.6,8.9.7,18.2l.2,16.9h11l.3-38.9c.1-27.9-.1-39.3-.9-40.2-1.5-1.8-8.3-1.8-9.8-.1-.6.8-1.2,7.5-1.3,16.8l-.3,15.4h-40l-.3-15.4c-.1-9.3-.7-16-1.3-16.8C540.4,110.6,534.6,110.6,533.1,112.4Z" transform="translate(-57.6 -57)"/><path class="cls-1" d="M680,111.7c-2.5.9-5,4.6-5,7.5,0,1.7,1,3.5,3.1,5.2,3.7,3.1,5.2,3.2,9,.5,2.3-1.6,2.9-2.8,2.9-5.8a8.08,8.08,0,0,0-1.7-5.4C686.2,111.9,682.1,110.9,680,111.7Z" transform="translate(-57.6 -57)"/><path class="cls-1" d="M384,137.4c-6.1,1.3-10.9,3.6-13,6.1-1.2,1.4-1,2,1.3,4.3l2.7,2.7,5.3-2.8a21.71,21.71,0,0,1,10.6-2.7c4.7,0,5.7.4,8.7,3.4,2.6,2.6,3.4,4.2,3.4,7v3.5l-6.7-.1c-13.8-.3-23.4,3.1-27.4,9.6-2.3,3.8-2.5,12.5-.4,16.6,2.4,4.7,9.1,8,16.2,8,5.9,0,12.5-1.9,13.8-4a9.39,9.39,0,0,1,2.5-2c1.6-.9,2.2-.5,3.5,2s2.2,3,5,3c1.8,0,3.6-.3,3.8-.8s.2-10.1-.2-21.7c-.8-23.3-1.3-25-7.1-28.9-3.4-2.2-5.7-2.9-14-4.1A29.59,29.59,0,0,0,384,137.4ZM403,170c0,8.9-5.6,14.2-15.1,14.2-7.1,0-10.9-2.6-10.9-7.4,0-7.5,5.3-10.3,20.8-10.7l5.2-.1Z" transform="translate(-57.6 -57)"/><path class="cls-1" d="M450,137.3a24.93,24.93,0,0,0-6.7,3.4c-4,2.9-4.1,2.9-5.3-.3-.9-2.2-1.5-2.5-5.2-2.2l-4.3.3v53l3.9.3c2.1.2,4.4-.2,5-.8s1-5.7.8-14.3c-.4-22.1,2.1-27.2,13.9-28.5l6.4-.7.3-4.1c.2-2.8-.2-4.7-1.3-5.8C455.7,135.8,455,135.8,450,137.3Z" transform="translate(-57.6 -57)"/><path class="cls-1" d="M632.4,137.4c-5.7,1.2-13.7,5.9-15.9,9.3-5.1,7.7-5.7,9.8-5.7,17.6.1,14.2,6,23.1,18.2,27.4,4.6,1.7,14.5,1.6,19.3,0,5-1.8,12.7-7.3,12.7-9.1,0-1.4-4.5-5.6-6-5.6-.5,0-3.1,1.6-6,3.5-6.3,4.2-11.9,4.6-18.2,1.4-6-3.1-8.8-6.5-8.8-10.8,0-2.1.4-2.1,20.5-2.1,23.5,0,22.7.3,21.6-9C662.1,143.6,648.4,133.9,632.4,137.4Zm13.1,9c3.9,1.7,7.5,6.8,7.5,10.8V160H637.5c-14.9,0-15.5-.1-15.5-2,0-3.1,4.1-8.7,8-10.9C634.1,144.7,640.6,144.4,645.5,146.4Z" transform="translate(-57.6 -57)"/><path class="cls-1" d="M725.3,137.4a26.9,26.9,0,0,0-6.2,3.4c-3.7,2.7-3.9,2.7-4.3-.1-.3-1.9-.9-2.2-5.3-2.2h-5L704,164c-.3,14-.1,26.1.4,26.7,1.2,1.8,8.1,1.6,9.6-.2.8-1,1-5.1.7-14.2-.6-15.8.5-21.4,5-26,3-2.9,4-3.3,8.9-3.3,5.6,0,9.5,1.7,11.1,4.8.4.9,1,10.2,1.3,20.7l.5,19h10l.3-20c.3-21.8-.1-23.8-5.2-29.3C742,137.3,731.8,135,725.3,137.4Z" transform="translate(-57.6 -57)"/><path class="cls-1" d="M779.1,137.1c-9,2.6-14.2,8.8-14,16.8.1,7,4.3,11.2,13.7,13.9,2.3.7,6,1.7,8.3,2.4,6.5,1.9,8.8,6.8,4.8,10.4-3.1,2.8-12.7,2.6-16.8-.4s-6.2-2.8-9.4.6l-2.6,2.7,3.1,3.4c4.3,4.6,8.5,6.1,17.1,6.1,13.8,0,22.7-6.7,22.7-17.2,0-7.4-9.4-15.8-17.6-15.8-4.5,0-12.4-4.8-12.4-7.5,0-.6,1-2.1,2.3-3.3,3.1-2.9,9.6-2.9,14.8,0l4,2.2,3.1-3.2,3.2-3.2-2.8-2.9C795.7,136.9,786.9,134.9,779.1,137.1Z" transform="translate(-57.6 -57)"/><path class="cls-1" d="M677.5,139.2c-.3.7-.4,12.8-.3,26.8l.3,25.5h10v-53l-4.8-.3C679.5,138,677.8,138.3,677.5,139.2Z" transform="translate(-57.6 -57)"/></svg>